<svg xmlns="http://www.w3.org/2000/svg" height="40" viewBox="0 -960 960 960" width="40"><path d="m380.015-79.97-18.986-126.82q-8.073-2.449-25.587-12.315-17.515-9.866-38.573-23.33l-117.746 52.37L77.732-368.239l106.594-78.616q-1.428-7.344-1.761-15.893-.333-8.549-.333-17.252 0-6.87.416-16.239.417-9.37 1.845-18.239L77.732-592.921l101.391-177.028 119.391 52.797q11.899-9.804 28.714-19.468 16.816-9.663 33.801-15.438l18.986-128.797h200.304l18.985 127.297q15.739 5.942 32.841 15.522t29.652 20.884l119.573-52.797 101.232 177.028-108.834 78.484q1.094 8.161 1.674 16.781.58 8.62.58 17.656t-.62 17.581q-.619 8.545-1.8 16.452l108.166 77.728-101.47 178.174-118.819-53.037q-11.873 10.04-27.698 19.622-15.825 9.582-34.477 16.69L580.319-79.97H380.015ZM478.839-350q53.793 0 91.781-38.034 37.989-38.033 37.989-92 0-53.966-38.024-91.966-38.024-38-91.976-38-54.421 0-92.21 38.034-37.79 38.033-37.79 92 0 53.966 37.79 91.966 37.789 38 92.44 38Zm-.23-63.333q-28.16 0-47.414-19.5-19.253-19.5-19.253-47.167t19.253-47.167q19.254-19.5 47.414-19.5 27.666 0 47.166 19.5 19.501 19.5 19.501 47.167t-19.501 47.167q-19.5 19.5-47.166 19.5Zm1.224-67.167Zm-40.019 328.109h79.417l14.784-110.181q31.962-8.044 59.734-23.918 27.772-15.875 50.882-40.126l104.087 45 36.775-66.33-91.442-67.351q3.833-16.319 6.493-32.311 2.659-15.992 2.659-32.471 0-16.66-2.076-32.316-2.076-15.656-7.076-32.308l91.761-67.855-36.427-66.493-104.682 45.333q-21.5-24.224-50.018-41.416-28.518-17.192-60.67-22.787l-13.644-110.355h-80.632l-13.181 110.132q-34.558 7.571-61.783 23.18t-51.297 40.913l-102.609-45-37.348 66.493 90.37 66.116q-4.333 17.319-6.826 33.39-2.493 16.072-2.493 32.522 0 16.603 2.243 32.747 2.243 16.145 6.576 33.472l-89.87 66.203 37.279 66.492 102.511-44.587q24.406 24.645 52.587 40.591 28.182 15.946 60.66 23.779l13.256 109.442Z"/></svg>